<?xml version="1.0" encoding="UTF-8" standalone="no"?>
<!-- Created with Inkscape (http://www.inkscape.org/) -->

<svg
   xmlns:dc="http://purl.org/dc/elements/1.1/"
   xmlns:cc="http://creativecommons.org/ns#"
   xmlns:rdf="http://www.w3.org/1999/02/22-rdf-syntax-ns#"
   xmlns:svg="http://www.w3.org/2000/svg"
   xmlns="http://www.w3.org/2000/svg"
   xmlns:sodipodi="http://sodipodi.sourceforge.net/DTD/sodipodi-0.dtd"
   xmlns:inkscape="http://www.inkscape.org/namespaces/inkscape"
   width="527.21918"
   height="907.78223"
   id="svg2911"
   version="1.1"
   inkscape:version="0.47 r22583"
   sodipodi:docname="New document 5">
  <defs
     id="defs2913">
    <inkscape:perspective
       sodipodi:type="inkscape:persp3d"
       inkscape:vp_x="0 : 526.18109 : 1"
       inkscape:vp_y="0 : 1000 : 0"
       inkscape:vp_z="744.09448 : 526.18109 : 1"
       inkscape:persp3d-origin="372.04724 : 350.78739 : 1"
       id="perspective2919" />
    <inkscape:perspective
       id="perspective2929"
       inkscape:persp3d-origin="0.5 : 0.33333333 : 1"
       inkscape:vp_z="1 : 0.5 : 1"
       inkscape:vp_y="0 : 1000 : 0"
       inkscape:vp_x="0 : 0.5 : 1"
       sodipodi:type="inkscape:persp3d" />
    <inkscape:perspective
       id="perspective2943"
       inkscape:persp3d-origin="0.5 : 0.33333333 : 1"
       inkscape:vp_z="1 : 0.5 : 1"
       inkscape:vp_y="0 : 1000 : 0"
       inkscape:vp_x="0 : 0.5 : 1"
       sodipodi:type="inkscape:persp3d" />
  </defs>
  <sodipodi:namedview
     id="base"
     pagecolor="#ffffff"
     bordercolor="#666666"
     borderopacity="1.0"
     inkscape:pageopacity="0.0"
     inkscape:pageshadow="2"
     inkscape:zoom="0.67942388"
     inkscape:cx="283.88821"
     inkscape:cy="404.58464"
     inkscape:document-units="px"
     inkscape:current-layer="layer1"
     showgrid="false"
     inkscape:window-width="1280"
     inkscape:window-height="962"
     inkscape:window-x="-8"
     inkscape:window-y="-8"
     inkscape:window-maximized="1" />
  <metadata
     id="metadata2916">
    <rdf:RDF>
      <cc:Work
         rdf:about="">
        <dc:format>image/svg+xml</dc:format>
        <dc:type
           rdf:resource="http://purl.org/dc/dcmitype/StillImage" />
        <dc:title></dc:title>
      </cc:Work>
    </rdf:RDF>
  </metadata>
  <g
     inkscape:label="Layer 1"
     inkscape:groupmode="layer"
     id="layer1"
     transform="translate(-88.159028,-22.983492)">
    <path
       style="fill:#000000;stroke:#000000;stroke-width:0.98378646px;stroke-linecap:butt;stroke-linejoin:miter;stroke-opacity:1"
       d="M 451.47685,799.73134 406.58974,721.54087 476.09237,598.46329 406.58974,460.90599 283.51216,326.24463 160.43457,256.74199 l -31.85537,11.58378 -26.06349,-89.77424 21.71957,-2.89595 34.75132,50.67901 159.27687,66.60669 114.38976,63.71075 31.85537,-68.05466 5.79189,-50.679 -28.95943,-59.36684 40.5432,-85.43033 36.19929,-60.814804 31.85538,26.063489 -36.19929,57.918865 -13.03175,7.23986 -17.37566,52.12697 33.30335,63.71075 81.08641,1.44798 13.03174,26.06349 -70.95061,112.94178 -27.51146,37.64726 -14.47971,33.30334 -2.89594,13.03175 14.47971,49.23104 13.03175,86.87829 -28.95943,57.91886 -41.99119,57.91887 -5.79188,20.2716 20.27161,43.43915 -14.47973,20.2716 z"
       id="path2903" />
    <path
       style="fill:#000000;stroke:#000000;stroke-width:0.98378646px;stroke-linecap:butt;stroke-linejoin:miter;stroke-opacity:1"
       d="m 457.26874,240.81431 57.91886,27.51146 34.75133,4.34391 46.33509,-33.30335 13.03174,28.95944 -24.61552,36.19929 -41.99117,7.23985 -89.77424,-31.85537 -60.81481,-24.61552 21.71958,-36.19928 43.43914,21.71957 z"
       id="path2905"
       sodipodi:nodetypes="ccccccccccc" />
    <path
       style="fill:#000000;stroke:#000000;stroke-width:0.98378646px;stroke-linecap:butt;stroke-linejoin:miter;stroke-opacity:1"
       d="m 571.29651,240.81431 -15.5657,-18.09964 2.89595,-36.92328 -3.98193,-30.4074 -19.18562,-17.01368 -34.38932,0.362 -18.09965,10.85979 -9.77381,13.75573 7.60186,25.3395 -0.362,16.28968 4.70591,9.77381 5.79188,1.80997 7.23986,9.4118 4.34392,6.51588 7.96384,2.17196 15.92769,-19.90961 -15.92769,22.08157 -0.36199,5.79188 61.1768,-1.80996 z"
       id="path2907" />
    <path
       style="fill:#000000;stroke:#000000;stroke-width:0.98378646px;stroke-linecap:butt;stroke-linejoin:miter;stroke-opacity:1"
       d="m 241.13215,310.81918 -7.45654,11.71743 8.52177,22.36964 40.47839,23.43487 17.04354,18.10875 -25.5653,2.13045 -31.95663,-15.97833 -26.63053,4.26089 -5.32611,5.32611 -5.3261,-17.04354 20.2392,-26.63053 6.39132,-14.91309 7.45655,-23.43486 -28.76097,-12.78266 -19.17397,21.30442 -4.26089,25.56531 -1.06522,11.71743 -18.10876,-3.19566 -22.36964,-23.43487 -41.54362,12.78266 -6.391329,30.8914 -4.260884,26.63053 19.173973,14.9131 30.89142,10.65221 18.10875,3.19566 -4.26087,13.84788 -11.71744,23.43486 19.17398,27.69575 59.65238,78.82635 -14.9131,50.0654 13.84788,55.39149 73.50025,75.63069 7.45655,15.97832 -47.93495,29.82619 -30.89141,34.08707 -37.28274,7.45655 -2.13044,74.56547 23.43486,17.04354 25.5653,2.13044 18.10877,-2.13044 23.43486,-1.06523 -7.45655,-14.91309 c 0,0 -35.15229,-18.10875 -29.82619,-20.2392 5.3261,-2.13044 73.50025,-79.89158 73.50025,-79.89158 l 55.3915,-38.34796 -39.41318,-126.7613 -18.10876,-89.47856 -8.52177,-63.91327 -33.02185,-67.10892 61.78282,9.58699 22.36964,-7.45655 7.45655,-14.91309 -61.78282,-57.52195 -18.10876,-28.76097 -31.95663,-12.78265 -7.45655,2.13045 z"
       id="path2909" />
    <g
       style="font-size:40px;font-style:normal;font-weight:normal;fill:#000000;fill-opacity:1;stroke:none;font-family:Bitstream Vera Sans"
       id="text2966">
      <path
         d="m 363.4173,892.49799 0,-28.63282 5.70312,0 6.77735,20.27344 c 0.62498,1.88803 1.08071,3.30079 1.36718,4.23828 0.32551,-1.04166 0.83332,-2.57161 1.52344,-4.58984 l 6.85547,-19.92188 5.09766,0 0,28.63282 -3.65235,0 0,-23.96485 -8.32031,23.96485 -3.41797,0 -8.28125,-24.375 0,24.375 z"
         style=""
         id="path2971" />
      <path
         d="m 415.68292,863.86517 3.78906,0 0,16.54297 c -2e-5,2.87762 -0.32554,5.16277 -0.97656,6.85547 -0.65106,1.69271 -1.82619,3.06966 -3.52539,4.13086 -1.69924,1.0612 -3.92905,1.5918 -6.68945,1.5918 -2.6823,0 -4.87631,-0.46224 -6.58203,-1.38672 -1.70574,-0.92448 -2.92318,-2.26237 -3.65235,-4.01367 -0.72917,-1.7513 -1.09375,-4.14387 -1.09375,-7.17774 l 0,-16.54297 3.78907,0 0,16.52344 c -10e-6,2.48699 0.23111,4.31967 0.69336,5.49805 0.46223,1.17839 1.2565,2.08659 2.38281,2.72461 1.12629,0.63802 2.50324,0.95703 4.13086,0.95703 2.78644,0 4.77211,-0.63151 5.95703,-1.89453 1.18487,-1.26302 1.77732,-3.6914 1.77734,-7.28516 z"
         style=""
         id="path2973" />
      <path
         d="m 422.65558,892.49799 10.99609,-28.63282 4.08203,0 11.71875,28.63282 -4.3164,0 -3.33985,-8.67188 -11.97265,0 -3.14453,8.67188 z m 8.26172,-11.75782 9.70703,0 -2.98828,-7.92968 c -0.91147,-2.40884 -1.58856,-4.388 -2.03125,-5.9375 -0.3646,1.83596 -0.87892,3.65887 -1.54297,5.46875 z"
         style=""
         id="path2975" />
      <path
         d="m 460.58527,892.49799 0,-12.12891 -11.03516,-16.50391 4.60937,0 5.64454,8.63282 c 1.04165,1.6146 2.0117,3.22918 2.91015,4.84375 0.85936,-1.49738 1.90103,-3.18358 3.125,-5.0586 l 5.54688,-8.41797 4.41406,0 -11.42578,16.50391 0,12.12891 z"
         style=""
         id="path2977" />
      <path
         d="m 497.61652,892.49799 0,-25.25391 -9.4336,0 0,-3.37891 22.69531,0 0,3.37891 -9.47265,0 0,25.25391 z"
         style=""
         id="path2979" />
      <path
         d="m 514.90167,892.49799 0,-28.63282 3.78906,0 0,11.75782 14.88282,0 0,-11.75782 3.78906,0 0,28.63282 -3.78906,0 0,-13.4961 -14.88282,0 0,13.4961 z"
         style=""
         id="path2981" />
      <path
         d="m 540.5462,892.49799 10.9961,-28.63282 4.08203,0 11.71875,28.63282 -4.31641,0 -3.33984,-8.67188 -11.97266,0 -3.14453,8.67188 z m 8.26172,-11.75782 9.70703,0 -2.98828,-7.92968 c -0.91147,-2.40884 -1.58855,-4.388 -2.03125,-5.9375 -0.36459,1.83596 -0.87892,3.65887 -1.54297,5.46875 z"
         style=""
         id="path2983" />
      <path
         d="m 571.05402,892.49799 0,-28.63282 3.78906,0 0,28.63282 z"
         style=""
         id="path2985" />
    </g>
  </g>
</svg>
